<svg width="25" height="24" viewBox="0 0 25 24" fill="none" xmlns="http://www.w3.org/2000/svg">
<g id="logos:facebook" clip-path="url(#clip0_306_4353)">
<path id="Vector" d="M24.8672 12C24.8672 5.37262 19.4946 0 12.8672 0C6.23981 0 0.867188 5.37262 0.867188 12C0.867188 17.9895 5.25544 22.954 10.9922 23.8542V15.4688H7.94531V12H10.9922V9.35625C10.9922 6.34875 12.7838 4.6875 15.5248 4.6875C16.8377 4.6875 18.2109 4.92188 18.2109 4.92188V7.875H16.6978C15.2071 7.875 14.7422 8.80003 14.7422 9.74906V12H18.0703L17.5383 15.4688H14.7422V23.8542C20.4789 22.954 24.8672 17.9896 24.8672 12Z" fill="#1877F2"/>
<path id="Vector_2" d="M17.5383 15.4688L18.0703 12H14.7422V9.74906C14.7422 8.79994 15.2071 7.875 16.6978 7.875H18.2109V4.92188C18.2109 4.92188 16.8377 4.6875 15.5247 4.6875C12.7838 4.6875 10.9922 6.34875 10.9922 9.35625V12H7.94531V15.4688H10.9922V23.8542C11.6125 23.9514 12.2394 24.0002 12.8672 24C13.495 24.0002 14.1219 23.9514 14.7422 23.8542V15.4688H17.5383Z" fill="white"/>
</g>
<defs>
<clipPath id="clip0_306_4353">
<rect width="24" height="24" fill="white" transform="translate(0.867188)"/>
</clipPath>
</defs>
</svg>
