<svg width="382" height="269" viewBox="0 0 382 269" fill="none" xmlns="http://www.w3.org/2000/svg">
<g clip-path="url(#clip0_306_4099)">
<path d="M-1.65279 218.667C-1.65279 218.667 18.1522 180.771 47.7245 192.275C47.7245 192.275 23.2897 238.811 -1.65279 218.667Z" stroke="#017755" stroke-width="3.29" stroke-miterlimit="10"/>
<path d="M47.717 192.269C46.9241 192.292 46.1322 192.351 45.3435 192.423C21.9287 194.661 0.0191345 218.108 0.0191345 218.108C0.0191345 218.108 34.6167 208.561 45.0762 192.681" stroke="#017755" stroke-width="1.97" stroke-miterlimit="10"/>
<path d="M9.07061 184.855C9.07061 184.855 21.7799 144.028 -7.28061 131.311C-7.28061 131.311 -22.8139 181.531 9.07061 184.855Z" stroke="#017755" stroke-width="3.29" stroke-miterlimit="10"/>
<path d="M-7.28125 131.311C-6.73469 131.889 -6.21253 132.487 -5.70946 133.097C9.29699 151.209 8.27289 183.283 8.27289 183.283C8.27289 183.283 -9.50057 152.101 -5.69594 133.471" stroke="#017755" stroke-width="1.97" stroke-miterlimit="10"/>
<path d="M57.0538 123.789C57.0538 123.789 -9.70146 187.178 -2.68943 235.513" stroke="#061257" stroke-width="2.63" stroke-miterlimit="10"/>
<path d="M-22.916 162.732C-22.916 162.732 -24.5238 204.823 -3.42877 227.607" stroke="#061257" stroke-width="2.63" stroke-miterlimit="10"/>
<path d="M57.1086 155.513C61.2613 148.426 60.574 135.314 60.5301 134.46C60.5804 135.341 61.5259 149.04 67.747 155.141C74.182 161.446 89.6045 169.79 89.6045 169.79C89.6045 169.79 87.8927 149.89 82.7043 140.425C77.7466 131.363 66.7795 127.342 65.8406 127.013C66.8187 127.354 78.8808 131.436 90.3329 130.028C102.285 128.556 118.936 117.637 118.936 117.637C118.936 117.637 104.18 103.799 82.3273 106.518C74.5833 107.487 65.5635 112.435 63.1398 113.254C85.4775 97.5655 79.8293 65.0313 79.8293 65.0313C79.8293 65.0313 66.2131 68.7657 59.5048 78.7472C52.7965 88.7288 55.0643 110.794 55.0643 110.794C55.0643 110.794 52.0902 95.3416 43.8187 88.2763C35.5556 81.2162 24.4305 75.7505 24.4305 75.7505C24.4305 75.7505 23.4834 94.6591 31.3487 106.708C36.2099 114.152 41.7431 117.262 45.2677 118.548C40.5568 117.498 32.1127 116.117 25.5492 117.707C15.9217 120.045 2.51419 128.535 2.51419 128.535C2.51419 128.535 23.903 138.939 33.8085 137.683C43.7087 136.436 50.177 129.985 50.177 129.985C50.177 129.985 37.233 142.729 35.0168 154.449C32.8007 166.169 35.8198 173.332 35.8198 173.332C35.8198 173.332 52.8327 162.852 57.134 155.529L57.1086 155.513Z" fill="#ACC3E2"/>
<path d="M66.2708 118.636C70.877 132.951 52.2428 136.73 47.0149 126.178C40.5612 113.136 61.6645 104.32 66.2708 118.636Z" fill="#FAFDFF"/>
<path d="M59.7845 116.522C64.9974 119.785 60.1847 127.756 54.2021 126.193C48.3901 124.679 52.283 111.826 59.7845 116.522Z" fill="#061257"/>
</g>
<g clip-path="url(#clip1_306_4099)">
<path d="M29.645 260.326C29.645 260.326 36.7217 246.731 43.3384 253.929C49.7691 260.928 28.9352 265.945 28.9352 265.945L29.645 260.326Z" fill="#00764F"/>
<path d="M29.5713 263.715C29.5713 263.715 36.3738 254.466 41.0306 255.768" stroke="#061257" stroke-width="1.31" stroke-miterlimit="10"/>
<path d="M30.0028 244.878C30.0028 244.878 23.9681 230.786 16.8309 237.462C9.8912 243.958 30.2905 250.532 30.2905 250.532L30.0028 244.878Z" fill="#00764F"/>
<path d="M29.8194 248.262C29.8194 248.262 23.732 238.526 18.9924 239.477" stroke="#061257" stroke-width="1.31" stroke-miterlimit="10"/>
<path d="M26.8282 270.841C26.8282 270.841 7.48826 264.687 14.0899 257.278C20.4722 250.113 27.7879 265.991 27.7879 265.991L26.8282 270.841Z" fill="#00764F"/>
<path d="M17.4766 260.771C17.4766 260.771 25.3247 263.89 27.1568 269.801" stroke="#061257" stroke-width="1.31" stroke-miterlimit="10"/>
<path d="M20.1855 183.571C20.1855 183.571 37.1165 231.021 27.0697 273.656" stroke="#061257" stroke-width="1.97" stroke-miterlimit="10"/>
<path d="M29.5666 256.632C29.5666 256.632 45.5913 212.572 61.3557 195.29" stroke="#061257" stroke-width="1.97" stroke-miterlimit="10"/>
<path d="M36.8589 238.61C36.8589 238.61 56.8187 233.379 69.0741 216.849" stroke="#061257" stroke-width="1.97" stroke-miterlimit="10"/>
<path d="M-0.880859 201.32C-0.880859 201.32 13.6416 232.308 30.1104 235.886" stroke="#061257" stroke-width="1.97" stroke-miterlimit="10"/>
<path d="M37.749 192.142C37.8779 192.727 33.0329 223.18 29.5355 227.36" stroke="#061257" stroke-width="1.97" stroke-miterlimit="10"/>
<path d="M18.1588 181.132C18.1588 181.132 18.0947 185.457 20.6564 185.499C23.2182 185.542 22.975 182.741 22.1588 180.434L18.1662 181.133L18.1588 181.132Z" fill="#00764F"/>
<path d="M16.9415 169.043C26.7877 166.565 26.605 180.808 20.269 181.979C13.933 183.149 9.42948 170.93 16.9415 169.043Z" fill="#FFCF06"/>
<path d="M17.961 170.579C20.8114 169.948 21.5639 171.276 19.9036 172.556C18.2433 173.836 15.1042 171.201 17.961 170.579Z" fill="#1F1F26"/>
<path d="M59.8637 193.726C59.8637 193.726 56.5028 196.452 58.1099 198.444C59.717 200.437 61.7138 198.452 62.9605 196.341L59.8637 193.726Z" fill="#00764F"/>
<path d="M68.3563 185.04C76.5682 191.01 65.5213 200.003 60.5627 195.893C55.6041 191.784 62.0883 180.491 68.3563 185.04Z" fill="#FFCF06"/>
<path d="M67.8295 186.807C70.1414 188.595 69.6002 190.019 67.558 189.566C65.5084 189.113 65.5176 185.019 67.8295 186.807Z" fill="#1F1F26"/>
<path d="M-3.02531 200.707C-3.02531 200.707 -2.73283 205.027 -0.177195 204.853C2.37844 204.68 1.90167 201.913 0.892571 199.674L-3.03264 200.707L-3.02531 200.707Z" fill="#00764F"/>
<path d="M-5.24498 188.761C4.36352 185.471 5.36386 199.681 -0.851416 201.376C-7.06669 203.071 -12.5726 191.269 -5.24498 188.761Z" fill="#FFCF06"/>
<path d="M67.7823 215.9C67.7823 215.9 64.9754 219.191 66.9222 220.857C68.8691 222.523 70.4646 220.205 71.3095 217.902L67.7823 215.9Z" fill="#00764F"/>
<path d="M74.5428 205.809C83.7092 210.169 74.4972 221.039 68.8687 217.902C63.2402 214.766 67.5558 202.48 74.5428 205.809Z" fill="#FFCF06"/>
<path d="M74.3504 207.634C76.9488 208.971 76.6814 210.47 74.5829 210.397C72.4909 210.331 71.7446 206.296 74.3504 207.634Z" fill="#1F1F26"/>
<path d="M36.8745 188.516C36.8745 188.516 35.3756 193.685 37.6684 194.017C39.9685 194.35 40.6598 190.123 40.6598 190.123L36.8745 188.516Z" fill="#00764F"/>
<path d="M41.2791 179.97C48.1469 180.586 45.5079 190.764 39.861 191.193C34.2068 191.622 34.4112 179.354 41.2791 179.97Z" fill="#FFCF06"/>
<path d="M41.3904 181.473C42.8597 180.855 43.7497 182.554 42.8154 183.639C41.8892 184.717 39.921 182.092 41.3904 181.473Z" fill="#1F1F26"/>
<path d="M10.377 195.614C10.377 195.614 15.2441 210.209 27.1212 212.84" stroke="#061257" stroke-width="1.97" stroke-miterlimit="10"/>
<path d="M7.66238 193.174C7.66238 193.174 9.17472 198.821 11.5 197.836C13.8253 196.851 12.0859 192.537 12.0859 192.537L7.66238 193.174Z" fill="#00764F"/>
<path d="M6.94495 182.756C13.6758 179.463 16.9539 190.405 11.9417 193.99C6.92943 197.574 0.213257 186.056 6.94495 182.756Z" fill="#FFCF06"/>
<path d="M7.90336 184.092C8.92419 182.69 10.7046 183.774 10.4494 185.297C10.1934 186.827 6.88332 185.486 7.90336 184.092Z" fill="#1F1F26"/>
</g>
<g clip-path="url(#clip2_306_4099)">
<path d="M56.1352 243.93C43.2086 245.84 73.672 269.783 86.1294 268.329C86.1294 268.329 86.789 257.791 79.9075 252.054C73.7468 246.92 64.5602 242.685 56.1352 243.93Z" fill="#00764F"/>
<path d="M89.2163 212.854C89.2163 212.854 80.3424 245.238 90.7734 274.695" stroke="#061257" stroke-width="2.63" stroke-miterlimit="10"/>
<path d="M89.4263 259.88C89.6507 260.614 95.7298 261.174 105.644 253.286C115.551 245.397 121.685 218.113 115.538 218.902C109.391 219.69 83.83 241.474 89.4263 259.88Z" fill="#00764F"/>
<path d="M95.1521 170.359C78.9208 166.512 71.2029 194.717 86.2987 203.546C101.394 212.369 116.402 175.39 95.1521 170.359Z" fill="#FBCF08"/>
<path d="M89.9838 214.092C89.9838 214.092 122.297 206.861 115.884 189.028C109.397 170.989 91.9693 191.526 90.9561 197.021C90.9561 197.021 85.9786 172.283 72.6305 179.604C59.2823 186.925 71.8009 212.133 89.9838 214.092Z" fill="#EF5326"/>
<path d="M99.3267 178.76C96.7632 178.857 94.254 183.583 96.872 184.185C99.4899 184.787 101.89 178.663 99.3267 178.76Z" fill="#061257"/>
<path d="M93.7371 176.04C90.7112 176.656 90.1468 183.168 92.7919 183.604C95.4371 184.04 96.7563 175.424 93.7371 176.04Z" fill="#061257"/>
<path d="M86.5644 177.009C84.0688 177.715 85.4968 183.265 88.1487 183.189C91.2835 183.099 89.0531 176.304 86.5644 177.009Z" fill="#061257"/>
<path d="M85.8164 250.497C85.8164 250.497 68.7487 235.108 67.4839 213.483" stroke="#061257" stroke-width="2.63" stroke-miterlimit="10"/>
<path d="M72.0878 217.075C72.0878 217.075 72.1286 223.344 69.6603 224.438C69.6603 224.438 63.6492 222.895 62.3708 219.532" stroke="#061257" stroke-width="1.97" stroke-miterlimit="10"/>
<path d="M76.752 223.254C76.752 223.254 76.2828 231.018 72.74 233.481C72.74 233.481 62.9618 230.928 61.629 226.306" stroke="#061257" stroke-width="1.97" stroke-miterlimit="10"/>
<path d="M81.8866 222.133C82.145 218.154 73.9715 216.597 74.5835 223.683C74.9575 228.022 81.6282 226.112 81.8866 222.133Z" fill="#EF5326"/>
<path d="M70.4355 209.83C68.3004 206.391 60.5893 209.387 65.288 214.951C68.1644 218.355 72.5707 213.269 70.4355 209.83Z" fill="#EF5326"/>
<path d="M76.6574 215.566C76.5146 212.216 69.5379 211.559 70.6871 217.441C71.3875 221.039 76.8002 218.915 76.6574 215.566Z" fill="#EF5326"/>
<path d="M62.2692 214.978C59.0801 213.504 55.1497 218.985 61.1812 220.825C64.8736 221.953 65.4584 216.452 62.2692 214.978Z" fill="#EF5326"/>
<path d="M62.5134 223.551C59.3242 222.078 55.3939 227.558 61.4254 229.399C65.1177 230.527 65.7025 225.025 62.5134 223.551Z" fill="#EF5326"/>
<path d="M68.5047 208.48C67.1516 207.089 64.5132 208.632 65.4244 209.774C66.3356 210.916 69.8579 209.864 68.5047 208.48Z" fill="#FBCF08"/>
<path d="M76.3773 214.14C75.9693 212.666 73.4601 212.819 73.6505 213.967C73.8409 215.116 76.7853 215.614 76.3773 214.14Z" fill="#FBCF08"/>
<path d="M81.1116 219.697C80.7037 218.223 78.1945 218.375 78.3849 219.524C78.5753 220.673 81.5196 221.171 81.1116 219.697Z" fill="#FBCF08"/>
<path d="M60.2495 214.798C58.6855 214.397 57.5771 216.521 58.7263 216.936C59.8755 217.352 61.8067 215.2 60.2495 214.798Z" fill="#FBCF08"/>
<path d="M60.2417 223.538C58.6777 223.136 57.5693 225.261 58.7185 225.676C59.8677 226.091 61.7989 223.939 60.2417 223.538Z" fill="#FBCF08"/>
</g>
<g clip-path="url(#clip3_306_4099)">
<path d="M137.915 165.189C137.915 165.189 159.139 250.627 127.853 284.954" stroke="#061257" stroke-width="3.29" stroke-miterlimit="10"/>
<path d="M153.89 154.388C153.89 154.388 167.511 142.796 156.007 131.462C144.493 120.127 138.74 139.306 137.393 150.242C137.393 150.242 138.389 127.534 121.076 130.149C103.762 132.764 116.567 153.741 122.851 158.134C122.851 158.134 106.211 151.297 101.645 164.61C97.0698 177.922 107.673 184.588 124.521 176.629C124.521 176.629 110.008 194.61 124.588 202.816C139.168 211.023 140.734 185.291 140.734 185.291C140.734 185.291 145.205 202.274 160.591 197.71C175.978 193.146 162.177 176.049 155.959 173.966C155.959 173.966 166.524 179.472 174.099 170.61C181.674 161.757 179.139 144.784 153.88 154.378L153.89 154.388Z" fill="#B1BBDF"/>
<path d="M144.208 159.389C144.208 159.389 157.279 138.973 152.068 137.081C146.856 135.189 141.152 159.598 141.152 159.598L144.208 159.389Z" fill="#5782C2"/>
<path d="M134.734 159.503C134.734 159.503 129.552 133.924 123.353 136.891C117.145 139.848 131.896 160.834 131.896 160.834L134.734 159.503Z" fill="#5782C2"/>
<path d="M128.488 164.22C128.488 164.22 107.7 159.941 107.112 165.884C106.523 171.817 127.501 167.13 127.501 167.13L128.488 164.22Z" fill="#5782C2"/>
<path d="M147.625 162.023C147.625 162.023 171.963 153.484 171.649 161.005C171.441 165.902 148.545 165.722 148.545 165.722L147.634 162.023H147.625Z" fill="#5782C2"/>
<path d="M147.141 170.467C147.141 170.467 167.653 187.221 158.807 189.532C149.96 191.843 143.41 172.169 143.41 172.169L147.15 170.467H147.141Z" fill="#5782C2"/>
<path d="M137.43 173.329C137.43 173.329 134.221 199.574 127.71 195.998C121.198 192.423 133.253 172.787 133.253 172.787L137.43 173.329Z" fill="#5782C2"/>
<path d="M132.542 157.211C112.191 164.105 132.324 180.936 145.11 174.936C156.558 169.563 152.903 150.317 132.542 157.211Z" fill="#061257"/>
<path d="M141.711 268.038C141.711 268.038 174.449 287.74 194.582 233.007C194.582 233.007 188.118 238.218 177.078 238.379C166.03 238.532 143.761 245.473 141.711 268.038Z" stroke="#017755" stroke-width="3.29" stroke-miterlimit="10"/>
<path d="M194.287 235.204C189.484 241.156 182.26 244.085 175.369 246.871C171.487 248.44 167.671 250.094 163.988 252.091C159.963 254.278 156.091 256.732 152.256 259.233C148.772 261.505 143.998 263.882 142.764 268.209C142.355 269.654 140.096 269.046 140.504 267.581C141.558 263.873 144.624 261.477 147.69 259.423C151.572 256.827 155.493 254.278 159.517 251.92C163.542 249.562 167.367 247.66 171.496 245.93C175.132 244.408 178.843 243.039 182.374 241.289C186.266 239.359 189.864 236.953 192.616 233.549C193.566 232.379 195.208 234.043 194.268 235.204H194.287Z" fill="#017755"/>
<path d="M193.101 239.235C190.51 242.658 187.994 246.148 185.308 249.504C182.802 252.633 179.746 254.981 176.395 257.131C169.855 261.324 162.755 264.795 155.256 266.887C150.975 268.085 146.571 268.798 142.128 268.969C140.619 269.026 140.628 266.687 142.128 266.63C149.656 266.335 157.031 264.348 163.894 261.276C167.254 259.774 170.5 258.034 173.633 256.104C176.765 254.173 180.078 252.015 182.603 249.124C185.65 245.634 188.298 241.745 191.089 238.056C191.981 236.867 194.022 238.037 193.111 239.235H193.101Z" fill="#017755"/>
<path d="M135.104 269.074C135.104 269.074 141.502 254.573 130.368 239.473C119.233 224.382 108.232 219.951 107.719 209.644C107.719 209.644 76.8984 250.484 135.104 269.065V269.074Z" stroke="#017755" stroke-width="3.29" stroke-miterlimit="10"/>
<path d="M133.329 268.817C133.822 260.136 130.576 251.863 125.925 244.684C123.59 241.089 120.903 237.742 118.103 234.5C115.303 231.257 112.218 228.461 110.13 224.877C107.871 220.987 106.997 216.49 106.826 212.04C106.769 210.528 109.114 210.537 109.161 212.04C109.313 216.081 110.092 220.17 112.142 223.697C114.192 227.225 117.581 230.306 120.305 233.492C125.763 239.872 130.766 246.785 133.566 254.782C135.132 259.28 135.939 264.053 135.664 268.817C135.578 270.32 133.243 270.329 133.329 268.817Z" fill="#017755"/>
<path d="M107.482 212.277C105.735 216.955 104.748 221.872 104.662 226.873C104.587 231.457 105.052 236.392 107.064 240.585C110.918 248.601 120.372 250.027 126.523 255.609C130.234 258.975 132.702 263.454 135.075 267.809C135.797 269.131 133.775 270.319 133.054 268.988C130.832 264.918 128.564 260.734 125.147 257.52C122.014 254.582 118.008 252.899 114.316 250.817C110.624 248.734 107.197 246.034 105.204 242.107C103.106 237.97 102.422 233.197 102.318 228.613C102.194 222.841 103.191 217.06 105.213 211.65C105.735 210.252 107.994 210.86 107.472 212.277H107.482Z" fill="#017755"/>
<path d="M147.254 233.815C147.254 233.815 171.431 234.471 176.547 206.695C176.547 206.695 168.839 209.957 167.131 210.204C165.422 210.442 148.554 212.629 147.245 233.824L147.254 233.815Z" stroke="#017755" stroke-width="3.29" stroke-miterlimit="10"/>
<path d="M176.964 209.073C172.959 213.951 166.675 215.605 161.321 218.486C158.54 219.979 156.12 221.853 154.43 224.572C152.522 227.644 151.317 231.086 148.877 233.824C147.871 234.956 146.219 233.292 147.226 232.17C149.675 229.412 150.776 225.789 152.816 222.765C154.544 220.208 156.908 218.287 159.575 216.784C164.862 213.808 171.307 212.296 175.313 207.428C176.272 206.258 177.914 207.932 176.964 209.082V209.073Z" fill="#017755"/>
</g>
<g clip-path="url(#clip4_306_4099)">
<path d="M240.271 213.3C240.271 213.3 242.671 256.79 229.121 269.91" stroke="#061257" stroke-width="2.63" stroke-miterlimit="10"/>
<path d="M181.92 205.649C181.92 205.649 196.13 253.729 224.32 256.139" stroke="#061257" stroke-width="2.63" stroke-miterlimit="10"/>
<path d="M225.329 146.2C225.329 146.2 199.979 232.75 234.069 274.13" stroke="#061257" stroke-width="3.29" stroke-miterlimit="10"/>
<path d="M216.11 147.93C216.11 147.93 175.12 135.29 187.76 121.5C200.4 107.71 220.32 134.14 223.77 141.8C223.77 141.8 219.94 103.87 233.35 105.02C246.76 106.17 233.35 137.97 230.67 139.88C230.67 139.88 254.42 114.98 265.53 128C276.64 141.03 242.93 152.52 232.58 149.07C232.58 149.07 266.29 160.56 252.88 172.82C239.47 185.08 223.76 152.52 223.76 152.52C223.76 152.52 204.99 180.49 190.81 166.31C176.64 152.14 216.09 147.92 216.09 147.92L216.11 147.93Z" fill="#FBCF08"/>
<path d="M235.011 133.76C238.651 133.76 239.611 138.17 235.781 138.93C231.951 139.7 231.371 133.76 235.011 133.76Z" fill="#EF5326"/>
<path d="M224.541 130.25C228.501 129.74 231.051 133.57 226.711 135.1C222.371 136.63 220.581 130.76 224.541 130.25Z" fill="#EF5326"/>
<path d="M217.511 133.12C221.341 133.5 222.361 138.61 217.891 139.38C213.421 140.15 213.681 132.74 217.511 133.12Z" fill="#EF5326"/>
<path d="M217.451 136.249C217.451 136.249 222.941 140.459 223.581 148.889L224.351 148.629C224.351 148.629 223.651 139.239 217.451 136.239V136.249Z" fill="#EF5326"/>
<path d="M225.371 132.289C225.371 132.289 223.391 142.759 224.351 148.639H225.121C225.121 148.639 224.741 137.269 226.211 132.039L225.381 132.299L225.371 132.289Z" fill="#EF5326"/>
<path d="M224.34 148.629C224.34 148.629 228.81 138.479 233.85 136.949L234.36 137.459C234.36 137.459 228.81 139.689 225.1 148.629H224.33H224.34Z" fill="#EF5326"/>
<path d="M172.24 207.96C172.24 207.96 145.37 191.19 158.3 184.32C171.23 177.45 178.3 199.07 178.9 202.5C178.9 202.5 175.06 175.83 186.17 175.83C197.28 175.83 192.84 198.66 186.57 203.51C186.57 203.51 212.23 189.98 212.63 206.34C213.03 222.7 184.95 213.21 183.74 210.78C183.74 210.78 195.05 234.82 181.32 236.84C167.58 238.86 174.86 214.01 174.86 214.01C174.86 214.01 144.96 228.15 141.33 217.65C137.69 207.15 165.37 205.13 172.24 207.95V207.96Z" fill="#FBCF08"/>
<path d="M183.75 196.97C186.46 195.99 188.36 199.01 185.71 200.61C183.07 202.21 181.04 197.95 183.75 196.97Z" fill="#EF5326"/>
<path d="M175.02 197.18C177.83 195.73 180.76 197.89 177.94 200.2C175.12 202.51 172.21 198.62 175.02 197.18Z" fill="#EF5326"/>
<path d="M170.57 201.21C173.52 200.46 175.66 203.98 172.54 205.76C169.42 207.53 167.62 201.96 170.57 201.21Z" fill="#EF5326"/>
<path d="M171.369 203.56C171.369 203.56 176.589 205.21 179.339 211.31L179.839 210.91C179.839 210.91 176.789 204.12 171.369 203.56Z" fill="#EF5326"/>
<path d="M176.189 198.48C176.189 198.48 177.539 206.8 179.839 210.91L180.409 210.7C180.409 210.7 177.059 202.35 176.739 198.06L176.189 198.47V198.48Z" fill="#EF5326"/>
<path d="M179.83 210.91C179.83 210.91 180.42 202.16 183.75 199.66L184.27 199.9C184.27 199.9 180.74 203.06 180.4 210.7L179.83 210.91Z" fill="#EF5326"/>
<path d="M235.671 212.7C235.671 212.7 212.261 196.18 223.081 191.46C233.901 186.74 238.621 202.47 240.191 207.39C240.191 207.39 235.081 185.36 246.681 186.15C258.291 186.94 247.271 206.21 246.091 208.18C246.091 208.18 267.731 193.62 269.301 206.8C270.871 219.98 248.251 214.67 248.251 214.67C248.251 214.67 262.021 227.65 252.181 234.14C242.351 240.63 240.181 215.45 240.181 215.45C240.181 215.45 229.561 234.33 220.311 224.89C211.061 215.45 235.651 212.69 235.651 212.69L235.671 212.7Z" fill="#FBCF08"/>
<path d="M252.833 203.84C255.093 204.56 254.813 207.48 252.283 207.2C249.753 206.91 250.583 203.12 252.833 203.84Z" fill="#EF5326"/>
<path d="M247.031 199.579C249.591 200.049 250.411 202.929 247.411 203.019C244.411 203.109 244.471 199.109 247.031 199.579Z" fill="#EF5326"/>
<path d="M242.112 199.969C244.412 200.969 244.032 204.339 241.102 203.929C238.182 203.519 239.812 198.979 242.112 199.969Z" fill="#EF5326"/>
<path d="M241.441 201.889C241.441 201.889 244.011 205.589 242.731 210.949H243.261C243.261 210.949 244.691 204.979 241.441 201.889Z" fill="#EF5326"/>
<path d="M247.142 201.01C247.142 201.01 243.832 207.11 243.262 210.94L243.742 211.09C243.742 211.09 245.762 203.97 247.712 201.01H247.142Z" fill="#EF5326"/>
<path d="M243.262 210.939C243.262 210.939 248.052 205.529 251.482 205.579L251.702 205.999C251.702 205.999 247.812 206.279 243.742 211.089L243.262 210.939Z" fill="#EF5326"/>
<path d="M182.939 253C184.109 260.87 205.669 259.12 205.959 254.75C206.249 250.38 181.769 245.13 182.939 253Z" fill="#017755"/>
<path d="M254.619 249.51C259.869 254.17 246.169 263.79 240.339 261.46C234.509 259.13 249.369 244.85 254.619 249.51Z" fill="#017755"/>
<path d="M202.749 176.36C208.579 172.28 214.699 190.35 211.489 192.68C208.279 195.01 196.919 180.44 202.749 176.36Z" fill="#017755"/>
<path d="M231.89 173.16C238.3 174.03 227.23 187.73 222.57 187.73C217.91 187.73 225.48 172.29 231.89 173.16Z" fill="#017755"/>
<path d="M230.74 236.43C235.91 237.42 233.45 254.41 227.78 255.64C222.12 256.87 225.56 235.45 230.74 236.43Z" fill="#017755"/>
</g>
<g clip-path="url(#clip5_306_4099)">
<path d="M296.332 277.958C296.332 277.958 263.544 278.503 251.991 247.553C251.991 247.553 253.075 251.89 264.917 257.019C276.768 262.147 287.314 258.473 296.323 277.958H296.332Z" fill="#007D4C"/>
<path d="M298.593 269.633C298.593 269.633 310.691 263.807 317.005 242.034C323.114 220.975 331.236 209.417 331.236 209.417C331.236 209.417 293.738 221.596 298.593 269.633Z" fill="#007D4C"/>
<path d="M301.144 163.659C301.144 163.659 313.14 189.6 303.482 213.193C290.786 244.211 289.831 265.09 300.308 279.336" stroke="#061257" stroke-width="2.63" stroke-miterlimit="10"/>
<path d="M311.938 162.273C311.938 162.273 321.289 138.382 314.813 133.483C308.337 128.584 290.71 131.374 289.106 137.982C287.502 144.591 298.466 162.069 298.466 162.069C298.466 162.069 281.649 144.752 274.73 148.444C267.81 152.143 266.914 171.943 271.462 175.694C276.01 179.445 294.481 174.809 294.481 174.809C294.481 174.809 267.179 192.432 274.508 202.017C281.837 211.602 297.544 211.568 301.776 207.571C306.008 203.573 306.656 181.545 306.656 181.545C306.656 181.545 314.932 203.948 321.63 204.543C328.328 205.147 342.252 195.451 340.699 189.31C339.146 183.17 318.729 173.61 318.729 173.61C318.729 173.61 344.607 178.858 347.601 171.254C350.596 163.668 348.873 146.479 341.484 145.722C334.087 144.965 311.946 162.273 311.946 162.273H311.938Z" fill="#587EBE"/>
<path d="M308.883 181.265C308.883 181.265 318.533 181.452 317.697 170.353C316.852 159.254 303.098 158.352 297.16 166.806C291.222 175.26 302.834 182.354 308.892 181.265H308.883Z" fill="#061257"/>
<path d="M306.734 162.443C305.907 162.979 306.487 167.181 307.485 167.045C308.483 166.908 307.562 161.916 306.734 162.443Z" fill="#B1BBDF"/>
<path d="M304.984 167.231C304.984 167.231 303.824 163.931 303.159 164.756C302.493 165.573 304.959 168.005 304.984 167.231Z" fill="#B1BBDF"/>
<path d="M301.479 169.741C301.479 169.741 297.93 167.801 298.348 169.443C298.757 171.076 301.863 169.97 301.479 169.741Z" fill="#B1BBDF"/>
<path d="M314.481 166.364C314.327 167.929 310.795 169.902 310.684 168.618C310.581 167.342 314.626 164.799 314.481 166.364Z" fill="#B1BBDF"/>
<path d="M299.5 174.265C300.907 175.064 303.177 172.768 302.844 172.062C302.503 171.356 298.1 173.466 299.5 174.265Z" fill="#B1BBDF"/>
<path d="M308.978 174.384C308.364 175.405 309.473 178.501 310.497 178.245C311.521 177.99 309.592 173.363 308.978 174.384Z" fill="#B1BBDF"/>
<path d="M305.079 174.928C303.338 175.362 302.971 177.327 303.663 178.126C304.345 178.926 306.828 174.495 305.079 174.928Z" fill="#B1BBDF"/>
<path d="M312.024 172.207C311.691 173.049 313.901 175.328 314.924 174.631C315.948 173.942 312.356 171.356 312.024 172.207Z" fill="#B1BBDF"/>
<path d="M312.492 145.654C311.724 145.85 307.603 159.041 309.608 159.84C311.613 160.64 314.762 145.084 312.492 145.654Z" fill="#B1BBDF"/>
<path d="M297.484 149.745C296.835 151.378 300.257 161.372 301.665 161.1C303.072 160.827 298.141 148.112 297.484 149.745Z" fill="#B1BBDF"/>
<path d="M305.25 152.611C303.483 153.054 304.285 160.445 305.702 160.572C307.127 160.7 307.016 152.169 305.25 152.611Z" fill="#B1BBDF"/>
<path d="M286.188 154.95C284.883 156.906 295.539 165.411 296.887 164.586C298.235 163.761 287.493 152.994 286.188 154.95Z" fill="#B1BBDF"/>
<path d="M285.437 162.647C285.753 164.85 293.031 167.103 294.473 166.338C295.915 165.564 285.13 160.444 285.437 162.647Z" fill="#B1BBDF"/>
<path d="M282.486 170.072C283.314 171.739 293.672 170.285 293.8 169.188C293.936 168.091 281.65 168.405 282.486 170.072Z" fill="#B1BBDF"/>
<path d="M318.474 176.459C317.859 177.922 325.666 184.853 326.937 183.714C328.208 182.583 319.088 174.996 318.474 176.459Z" fill="#B1BBDF"/>
<path d="M313.251 182.991C311.732 184.105 314.633 193.333 316.288 192.423C317.944 191.513 314.77 181.868 313.251 182.991Z" fill="#B1BBDF"/>
<path d="M316.844 181.035C315.752 182.532 321.093 189.429 322.321 188.145C323.55 186.861 317.936 179.538 316.844 181.035Z" fill="#B1BBDF"/>
<path d="M303.296 182.473C302.05 183.681 301.367 191.361 302.946 191.131C304.524 190.901 304.55 181.265 303.296 182.473Z" fill="#B1BBDF"/>
<path d="M299.404 180.678C297.655 181.196 292.553 192.755 294.729 192.619C296.904 192.483 301.153 180.15 299.404 180.678Z" fill="#B1BBDF"/>
<path d="M296.342 177.939C294.073 177.692 286.88 184.879 288.621 185.917C290.353 186.946 298.62 178.185 296.342 177.939Z" fill="#B1BBDF"/>
<path d="M328.285 171.552C327.116 173.066 318.2 171.475 318.388 170.285C318.576 169.094 329.454 170.038 328.285 171.552Z" fill="#B1BBDF"/>
<path d="M327.756 158.463C325.291 157.774 315.965 163.948 317.253 165.182C318.542 166.406 329.975 159.084 327.756 158.463Z" fill="#B1BBDF"/>
<path d="M328.601 165.352C328.797 167.096 317.731 168.652 318.149 167.402C318.567 166.152 328.405 163.6 328.601 165.352Z" fill="#B1BBDF"/>
<path d="M287.432 216.629C280.539 216.026 278.337 239.746 283.004 240.937C293.072 243.505 294.326 217.233 287.432 216.629Z" fill="#B1BBDF"/>
<path d="M260.592 224.249C253.408 227.014 264.985 244.262 270.25 243.097C275.241 242 269.115 220.958 260.592 224.249Z" fill="#B1BBDF"/>
<path d="M275.573 209.868C268.142 209.944 270.104 232.78 274.737 233.452C279.37 234.124 285.94 209.757 275.573 209.868Z" fill="#B1BBDF"/>
<path d="M293.191 262.403C293.191 262.403 271.059 252.776 275.735 220.729" stroke="#061257" stroke-width="2.63" stroke-miterlimit="10"/>
<path d="M284.71 224.785C284.71 224.785 286.383 243.207 279.369 247.723C279.369 247.723 270.317 246.022 266.298 235.842" stroke="#061257" stroke-width="2.63" stroke-miterlimit="10"/>
</g>
<g clip-path="url(#clip6_306_4099)">
<path d="M360.454 238.238C360.454 238.238 367.177 220.509 370.753 224.099C374.329 227.69 369.897 234.207 360.129 240.447L360.454 238.244V238.238Z" fill="#007553"/>
<path d="M360.016 239.37C360.016 239.37 367.275 233.739 368.776 227.401" stroke="#061257" stroke-width="1.31" stroke-miterlimit="10"/>
<path d="M361.75 257.681C361.105 257.681 366.919 237.569 376.611 236.274C386.303 234.974 366.491 260.276 361.105 263.306L361.75 257.681Z" fill="#007553"/>
<path d="M360.8 249.782C360.8 249.782 353.476 247.187 348.307 239.62C343.139 232.053 337.537 221.238 344.428 221.455C351.32 221.673 357.994 246.322 360.578 246.758L360.795 249.788L360.8 249.782Z" fill="#007553"/>
<path d="M346.516 228.038C346.516 228.038 352.28 244.761 360.959 248.248" stroke="#061257" stroke-width="1.31" stroke-miterlimit="10"/>
<path d="M360.779 214.285C360.779 214.285 357.978 225.949 360.129 240.442C362.279 254.934 361.283 265.934 360.432 271.897" stroke="#061257" stroke-width="2.63" stroke-miterlimit="10"/>
<path d="M349.63 220.242C360.655 224.431 374.519 221.085 379.021 215.166C385.972 206.027 378.777 191.659 377.374 193.063C375.971 194.472 375.131 200.38 374.573 198.971C374.015 197.562 372.617 192.785 371.496 193.21C370.374 193.634 369.107 198.971 368.408 197.986C367.709 197.002 367.286 191.937 366.165 192.214C365.043 192.497 362.66 199.112 362.101 197.986C361.543 196.86 360.98 191.088 359.999 191.512C359.019 191.937 357.589 197.752 356.749 196.626C355.909 195.5 355.411 190.414 353.412 191.654C352.398 192.28 352.713 197.285 351.45 195.875C350.188 194.466 351.077 190.724 349.067 190.811C346.645 190.914 346.45 197.377 345.61 196.109C344.77 194.842 343.237 188.237 340.967 191.344C339.851 192.873 334.076 214.323 349.63 220.237V220.242Z" fill="#EF5224"/>
<path d="M354.127 183.249C356.57 183.39 358.147 189.739 355.563 190.604C352.979 191.469 351.684 183.107 354.127 183.249Z" fill="#FFCF09"/>
<path d="M362.453 179.065C365.899 180.077 364.75 188.439 361.733 188.58C358.715 188.721 359.008 178.059 362.453 179.065Z" fill="#FFCF09"/>
<path d="M368.483 184.544C370.639 185.409 370.639 191.899 367.621 191.176C364.604 190.452 366.326 183.679 368.483 184.544Z" fill="#FFCF09"/>
<path d="M361.039 259.586C361.039 259.586 370.672 248.249 375.407 239.055" stroke="#061257" stroke-width="1.31" stroke-miterlimit="10"/>
</g>
<g clip-path="url(#clip7_306_4099)">
<path d="M10.006 71.8703C10.006 71.8703 18.787 72.818 17.1356 76.2845C15.4869 79.747 9.68648 74.2371 8.01125 72.3603L10.0032 71.8742L10.006 71.8703Z" fill="#FFCD06"/>
<path d="M4.41669 65.6907C4.41669 65.6907 -1.30931 57.7748 2.31302 56.5441C5.93814 55.3096 5.69063 63.326 5.69063 63.326L4.41276 65.6879L4.41669 65.6907Z" fill="#FFCD06"/>
<path d="M13.7761 51.6284C13.7761 51.6284 19.4927 48.6132 20.6245 51.0594C21.7564 53.5056 15.9081 55.7409 11.9175 53.8473L13.7761 51.6284Z" fill="#FFCD06"/>
<path d="M16.1485 47.7322C16.1485 47.7322 9.79654 43.1937 12.4436 40.4446C15.0906 37.6954 17.1682 46.6873 17.1682 46.6873L16.1485 47.7322Z" fill="#FFCD06"/>
<path d="M-0.421875 45.7881C-0.421875 45.7881 -10.6751 65.8971 -1.92443 73.7928" stroke="#061257" stroke-width="2.63" stroke-miterlimit="10"/>
<path d="M28.3585 31.6503C28.3585 31.6503 19.5086 41.4771 12.365 53.3034C5.22145 65.1297 -3.5518 76.3118 -3.5518 76.3118" stroke="#061257" stroke-width="2.63" stroke-miterlimit="10"/>
<path d="M25.7006 23.9353C25.7006 23.9353 20.0885 11.1234 28.814 9.4896C37.5423 7.8519 33.9187 20.8926 32.465 23.0934C32.465 23.0934 40.0483 15.0809 46.1333 21.0483C52.2184 27.0158 36.7699 29.7575 36.7699 29.7575C36.7699 29.7575 50.0821 30.0057 47.5942 38.5318C45.1064 47.0578 33.957 39.5528 33.029 37.27C33.029 37.27 35.1923 49.6986 27.6366 49.047C20.0809 48.3954 23.3791 39.0591 24.8328 36.8583C24.8328 36.8583 19.1791 44.281 12.8661 38.1507C6.5491 32.0176 18.1208 29.9818 20.5025 30.0638C20.5025 30.0638 8.0984 26.7579 9.97764 21.0365C11.8569 15.315 21.6198 17.4313 25.6967 23.9325L25.7006 23.9353Z" fill="#F2B1B7"/>
<path d="M33.5333 26.9247C33.5333 26.9247 41.1456 21.4808 41.6863 22.6769C42.2269 23.8731 33.5237 28.0766 33.5237 28.0766L33.5333 26.9247Z" fill="#695154"/>
<path d="M35.541 32.6987C35.541 32.6987 45.3539 35.1937 43.9399 36.4415C42.5258 37.6893 34.7608 33.7906 34.7608 33.7906L35.541 32.6987Z" fill="#695154"/>
<path d="M28.4395 36.0482C28.4395 36.0482 25.2602 43.6723 27.3617 45.0023C29.4631 46.3324 29.5095 35.7722 29.5095 35.7722L28.4395 36.0482Z" fill="#695154"/>
<path d="M23.2844 32.2772C23.0525 32.1115 14.0383 34.9636 15.1298 36.0036C16.2214 37.0436 23.5742 33.0931 23.5742 33.0931L23.2844 32.2772Z" fill="#695154"/>
<path d="M22.5458 25.5C22.5458 25.5 13.4675 19.5338 13.7171 21.0126C13.9666 22.4915 22.3185 26.5494 22.3185 26.5494L22.5486 25.4961L22.5458 25.5Z" fill="#695154"/>
<path d="M27.7318 23.128C27.5169 23.0631 27.4322 12.3207 29.088 12.812C30.7465 13.2995 28.7956 23.7166 28.7956 23.7166L27.7318 23.128Z" fill="#695154"/>
<path d="M27.6086 22.4023C35.3403 23.2979 41.3867 37.4547 29.6554 36.9467C17.924 36.4388 19.8769 21.5067 27.6086 22.4023Z" fill="#413130"/>
<path d="M25.893 24.2733C32.2615 22.5397 36.7194 31.7899 31.4912 34.8526C24.5895 38.8949 19.5273 26.003 25.893 24.2733Z" stroke="#695154" stroke-width="1.97" stroke-miterlimit="10"/>
<path d="M-3.23506 48.9504C-3.23506 48.9504 -8.51652 54.6056 -11.2962 50.5269C-14.0759 46.4481 -6.61815 45.4337 -5.17091 45.6933C-5.17091 45.6933 -10.9462 43.5886 -9.25846 39.1905C-7.57068 34.7924 -2.73083 42.0455 -2.73083 42.0455C-2.73083 42.0455 -5.56908 35.2235 -0.6687 34.6222C4.23168 34.021 2.89047 41.3328 1.93458 42.305C1.93458 42.305 7.79211 38.4861 9.14226 42.4715C10.4924 46.4569 4.99548 46.8211 3.54824 46.5614C3.54824 46.5614 8.59182 47.8123 6.87518 52.3671C5.15461 56.9192 1.53678 51.479 1.04936 50.25C1.04936 50.25 2.12893 57.2815 -1.2053 57.5771C-4.53952 57.8727 -5.63956 52.4404 -3.23227 48.9465L-3.23506 48.9504Z" fill="#F2B1B7"/>
<path d="M-0.955879 42.0302C-0.955879 42.0302 -1.86939 36.4947 -0.916369 36.9392C0.0338519 37.3876 -0.224357 42.1864 -0.224357 42.1864L-0.955879 42.0302Z" fill="#695154"/>
<path d="M2.33658 44.9096C2.33658 44.9096 6.93634 44.862 7.14231 43.5018C7.35221 42.1444 1.9549 44.43 1.9549 44.43L2.33378 44.9135L2.33658 44.9096Z" fill="#695154"/>
<path d="M1.55885 48.3562C1.52606 48.5101 4.99075 52.4694 5.27411 51.6905C5.56026 50.9078 1.90869 48.0327 1.90869 48.0327L1.55605 48.3601L1.55885 48.3562Z" fill="#695154"/>
<path d="M-1.73297 50.2126C-1.73297 50.2126 -2.75219 56.1347 -2.05044 55.6844C-1.34869 55.234 -1.14048 50.098 -1.14048 50.098L-1.72624 50.2115L-1.73297 50.2126Z" fill="#695154"/>
<path d="M-4.43795 48.3156C-5.70481 44.1887 0.170615 38.018 2.52686 44.0937C4.8831 50.1694 -3.16715 52.4453 -4.43795 48.3156Z" fill="#413130"/>
<path d="M-3.1015 48.7795C-5.40555 45.9214 -1.68091 41.6308 1.04707 43.6213C4.64601 46.2459 -0.800253 51.6415 -3.1015 48.7795Z" stroke="#695154" stroke-width="1.97" stroke-miterlimit="10"/>
<path d="M0.289222 71.2771C0.289222 71.2771 17.7029 76.5545 30.1366 57.9974" stroke="#061257" stroke-width="2.63" stroke-miterlimit="10"/>
<path d="M21.6472 63.6131C21.6472 63.6131 13.8867 63.489 15.036 58.7061C16.1852 53.9233 21.9687 58.7589 22.7527 60.0049C22.7527 60.0049 20.4152 54.3268 24.8161 52.6297C29.217 50.9327 27.1041 59.366 27.1041 59.366C27.1041 59.366 30.2449 52.7016 34.0037 55.9252C37.7557 59.1498 31.4312 63.0489 30.0662 62.9899C30.0662 62.9899 36.8542 64.7659 34.8112 68.4314C32.7682 72.0969 28.7879 68.2776 28.0038 67.0316C28.0038 67.0316 30.4821 71.5985 25.9423 73.3737C21.4054 75.1449 22.9947 68.8321 23.5795 67.6479C23.5795 67.6479 19.0912 73.1486 16.6206 70.8809C14.15 68.6132 17.4336 64.1671 21.65 63.6092L21.6472 63.6131Z" fill="#F2B1B7"/>
<path d="M24.9399 60.3503C24.9399 60.3503 23.9061 55.249 24.6357 55.25C25.3652 55.2511 25.5208 60.6175 25.5208 60.6175L24.9399 60.3503Z" fill="#695154"/>
<path d="M28.3164 60.6695C28.3164 60.6695 31.8082 56.2893 32.1191 57.2918C32.43 58.2942 28.6956 61.3188 28.6956 61.3188L28.3204 60.6723L28.3164 60.6695Z" fill="#695154"/>
<path d="M28.4028 65.0285C28.4028 65.0285 31.5428 68.3951 32.6942 67.6395C33.8457 66.8838 28.5042 64.4211 28.5042 64.4211L28.4028 65.0285Z" fill="#695154"/>
<path d="M25.327 66.7629C25.192 66.8438 24.592 72.0546 25.3619 71.7416C26.1357 71.4314 25.8009 66.806 25.8009 66.806L25.3203 66.764L25.327 66.7629Z" fill="#695154"/>
<path d="M21.725 65.5727C21.725 65.5727 16.6424 68.7807 17.4498 68.997C18.2571 69.2132 22.2041 65.9327 22.2041 65.9327L21.7223 65.5766L21.725 65.5727Z" fill="#695154"/>
<path d="M21.6991 62.4021C21.6146 62.4955 16.1599 60.0583 16.7776 59.335C17.402 58.6107 22.2361 61.9996 22.2361 61.9996L21.6991 62.4021Z" fill="#695154"/>
<path d="M21.3044 62.2977C23.5078 58.599 32.0513 58.8154 29.1359 64.6242C26.2206 70.4329 19.0983 66.0003 21.3044 62.2977Z" fill="#413130"/>
<path d="M21.8628 63.595C22.4278 59.9789 28.126 59.8649 28.4902 63.2109C28.9731 67.6289 21.2978 67.211 21.8628 63.595Z" stroke="#695154" stroke-width="1.97" stroke-miterlimit="10"/>
<path d="M9.347 72.2692C9.347 72.2692 14.4 73.4735 16.0039 75.5416L9.347 72.2692Z" fill="#061257"/>
<path d="M4.69828 64.5981C4.69828 64.5981 5.18824 59.882 2.99609 58.0557C2.99609 58.0557 4.82706 63.0467 4.69828 64.5981Z" fill="#061257"/>
<path d="M12.3611 53.3007C12.3611 53.3007 17.8414 50.4419 19.7242 51.4797C19.7242 51.4797 14.5375 52.2075 12.3611 53.3007Z" fill="#061257"/>
<path d="M13.041 40.9717C13.041 40.9717 16.5142 43.8138 16.423 46.8167C16.423 46.8167 14.1074 41.7809 13.041 40.9717Z" fill="#061257"/>
</g>
<defs>
<clipPath id="clip0_306_4099">
<rect width="110.84" height="189.13" fill="white" transform="translate(40.0176 40.1094) rotate(32.0454)"/>
</clipPath>
<clipPath id="clip1_306_4099">
<rect width="88.6142" height="103.545" fill="white" transform="translate(-5.76367 166) rotate(6.23015)"/>
</clipPath>
<clipPath id="clip2_306_4099">
<rect width="65" height="105" fill="white" transform="matrix(-1 0 0 1 118 170)"/>
</clipPath>
<clipPath id="clip3_306_4099">
<rect width="100" height="158" fill="white" transform="matrix(-1 0 0 1 198 128)"/>
</clipPath>
<clipPath id="clip4_306_4099">
<rect width="128.39" height="170.18" fill="white" transform="translate(141 105)"/>
</clipPath>
<clipPath id="clip5_306_4099">
<rect width="97" height="149" fill="white" transform="matrix(-1 0 0 1 349 131)"/>
</clipPath>
<clipPath id="clip6_306_4099">
<rect width="43" height="93" fill="white" transform="translate(339 179)"/>
</clipPath>
<clipPath id="clip7_306_4099">
<rect width="53" height="75" fill="white" transform="translate(18.6016) rotate(35.5455)"/>
</clipPath>
</defs>
</svg>
