<svg width="1440" height="189" viewBox="0 0 1440 189" fill="none" xmlns="http://www.w3.org/2000/svg">
<g clip-path="url(#clip0_306_3663)">
<g opacity="0.3">
<path d="M637.623 -17L-76.0005 188.753" stroke="#0984E3" stroke-opacity="0.2"/>
<path d="M641.848 -17L101.235 188.753" stroke="#0984E3" stroke-opacity="0.2"/>
<path d="M646.072 -17L214.569 188.753" stroke="#0984E3" stroke-opacity="0.2"/>
<path d="M650.297 -17L294.492 188.753" stroke="#0984E3" stroke-opacity="0.2"/>
<path d="M654.521 -17L354.773 188.753" stroke="#0984E3" stroke-opacity="0.2"/>
<path d="M658.746 -17L402.546 188.753" stroke="#0984E3" stroke-opacity="0.2"/>
<path d="M662.971 -17L441.876 188.753" stroke="#0984E3" stroke-opacity="0.2"/>
<path d="M667.195 -17L475.253 188.753" stroke="#0984E3" stroke-opacity="0.2"/>
<path d="M671.42 -17L504.291 188.753" stroke="#0984E3" stroke-opacity="0.2"/>
<path d="M675.643 -17L530.079 188.753" stroke="#0984E3" stroke-opacity="0.2"/>
<path d="M679.867 -17L553.389 188.753" stroke="#0984E3" stroke-opacity="0.2"/>
<path d="M684.092 -17L574.779 188.753" stroke="#0984E3" stroke-opacity="0.2"/>
<path d="M688.316 -17L594.665 188.753" stroke="#0984E3" stroke-opacity="0.2"/>
<path d="M692.541 -17L613.369 188.753" stroke="#0984E3" stroke-opacity="0.2"/>
<path d="M696.766 -17L631.143 188.753" stroke="#0984E3" stroke-opacity="0.2"/>
<path d="M700.99 -17L648.191 188.753" stroke="#0984E3" stroke-opacity="0.2"/>
<path d="M705.215 -17L664.685 188.753" stroke="#0984E3" stroke-opacity="0.2"/>
<path d="M709.439 -17L680.769 188.753" stroke="#0984E3" stroke-opacity="0.2"/>
<path d="M713.664 -17L696.571 188.753" stroke="#0984E3" stroke-opacity="0.2"/>
<path d="M717.889 -17L712.209 188.753" stroke="#0984E3" stroke-opacity="0.2"/>
<path d="M722.111 -17L727.791 188.753" stroke="#0984E3" stroke-opacity="0.2"/>
<path d="M726.336 -17L743.429 188.753" stroke="#0984E3" stroke-opacity="0.2"/>
<path d="M730.561 -17L759.231 188.753" stroke="#0984E3" stroke-opacity="0.2"/>
<path d="M734.785 -17L775.315 188.753" stroke="#0984E3" stroke-opacity="0.2"/>
<path d="M739.01 -17L791.809 188.753" stroke="#0984E3" stroke-opacity="0.2"/>
<path d="M743.234 -17L808.857 188.753" stroke="#0984E3" stroke-opacity="0.2"/>
<path d="M747.459 -17L826.631 188.753" stroke="#0984E3" stroke-opacity="0.2"/>
<path d="M751.684 -17L845.335 188.753" stroke="#0984E3" stroke-opacity="0.2"/>
<path d="M755.908 -17L865.221 188.753" stroke="#0984E3" stroke-opacity="0.2"/>
<path d="M760.133 -17L886.611 188.753" stroke="#0984E3" stroke-opacity="0.2"/>
<path d="M764.357 -17L909.921 188.753" stroke="#0984E3" stroke-opacity="0.2"/>
<path d="M768.58 -17L935.709 188.753" stroke="#0984E3" stroke-opacity="0.2"/>
<path d="M772.805 -17L964.747 188.753" stroke="#0984E3" stroke-opacity="0.2"/>
<path d="M777.029 -17L998.124 188.753" stroke="#0984E3" stroke-opacity="0.2"/>
<path d="M781.254 -17L1037.45 188.753" stroke="#0984E3" stroke-opacity="0.2"/>
<path d="M785.479 -17L1085.23 188.753" stroke="#0984E3" stroke-opacity="0.2"/>
<path d="M789.703 -17L1145.51 188.753" stroke="#0984E3" stroke-opacity="0.2"/>
<path d="M793.928 -17L1225.43 188.753" stroke="#0984E3" stroke-opacity="0.2"/>
<path d="M798.152 -17L1338.77 188.753" stroke="#0984E3" stroke-opacity="0.2"/>
<path d="M802.377 -17L1516 188.753" stroke="#0984E3" stroke-opacity="0.2"/>
<path d="M575.662 0.864258H864.337" stroke="#0984E3" stroke-opacity="0.2"/>
<path d="M559.482 5.53027H880.518" stroke="#0984E3" stroke-opacity="0.2"/>
<path d="M539.668 11.2422H900.33" stroke="#0984E3" stroke-opacity="0.2"/>
<path d="M515.531 18.2012H924.467" stroke="#0984E3" stroke-opacity="0.2"/>
<path d="M486.273 26.6377H953.727" stroke="#0984E3" stroke-opacity="0.2"/>
<path d="M450.973 36.8154H989.029" stroke="#0984E3" stroke-opacity="0.2"/>
<path d="M408.568 49.041H1031.43" stroke="#0984E3" stroke-opacity="0.2"/>
<path d="M357.854 63.6641H1082.15" stroke="#0984E3" stroke-opacity="0.2"/>
<path d="M297.441 81.082H1142.56" stroke="#0984E3" stroke-opacity="0.2"/>
<path d="M225.758 101.75H1214.24" stroke="#0984E3" stroke-opacity="0.2"/>
<path d="M141.014 126.183H1298.98" stroke="#0984E3" stroke-opacity="0.2"/>
<path d="M41.1895 154.965H1398.81" stroke="#0984E3" stroke-opacity="0.2"/>
<path d="M-76 188.753H1516" stroke="#0984E3" stroke-opacity="0.2"/>
</g>
</g>
<defs>
<clipPath id="clip0_306_3663">
<rect width="1592" height="188.753" fill="white" transform="translate(-76)"/>
</clipPath>
</defs>
</svg>
