<svg width="25" height="24" viewBox="0 0 25 24" fill="none" xmlns="http://www.w3.org/2000/svg">
<g id="devicon:linkedin" clip-path="url(#clip0_306_4356)">
<path id="Vector" d="M22.6172 0.562587H3.11719C2.67475 0.558084 2.24859 0.729282 1.93222 1.03862C1.61586 1.34795 1.43513 1.77016 1.42969 2.21259V21.7913C1.43611 22.2331 1.61727 22.6544 1.93353 22.9629C2.24979 23.2714 2.67539 23.4421 3.11719 23.4376H22.6172C23.0597 23.4411 23.4855 23.2693 23.8017 22.9598C24.1179 22.6503 24.2988 22.2282 24.3047 21.7857V2.20696C24.2968 1.76583 24.1151 1.34564 23.7991 1.03772C23.4831 0.729808 23.0584 0.559058 22.6172 0.562587Z" fill="#0076B2"/>
<path id="Vector_2" d="M4.81688 9.13672H8.2125V20.0623H4.81688V9.13672ZM6.51563 3.69922C6.90509 3.69922 7.2858 3.81473 7.6096 4.03114C7.9334 4.24756 8.18574 4.55514 8.33469 4.91499C8.48365 5.27485 8.52252 5.67079 8.44641 6.05274C8.37029 6.43469 8.1826 6.78549 7.90708 7.06075C7.63156 7.33601 7.28058 7.52337 6.89856 7.59912C6.51654 7.67487 6.12063 7.63561 5.76092 7.48632C5.40121 7.33702 5.09386 7.08439 4.87776 6.76038C4.66165 6.43638 4.5465 6.05556 4.54688 5.66609C4.54737 5.14427 4.75501 4.644 5.12417 4.27519C5.49333 3.90638 5.99381 3.69922 6.51563 3.69922ZM10.3425 9.13672H13.5975V10.6367H13.6425C14.0963 9.77797 15.2025 8.87234 16.8544 8.87234C20.2931 8.86484 20.9306 11.128 20.9306 14.0623V20.0623H17.535V14.7467C17.535 13.4811 17.5125 11.8517 15.7706 11.8517C14.0288 11.8517 13.7325 13.2317 13.7325 14.6642V20.0623H10.3425V9.13672Z" fill="white"/>
</g>
<defs>
<clipPath id="clip0_306_4356">
<rect width="24" height="24" fill="white" transform="translate(0.867188)"/>
</clipPath>
</defs>
</svg>
