<svg width="14" height="15" viewBox="0 0 14 15" fill="none" xmlns="http://www.w3.org/2000/svg">
<g id="Icons/location-arrow">
<path id="Vector" d="M12.3375 2.16832C12.1147 1.94115 11.8321 1.7817 11.5224 1.7084C11.2127 1.63511 10.8886 1.65097 10.5875 1.75415L2.33338 4.51332C2.00048 4.62229 1.70962 4.83191 1.50094 5.11324C1.29226 5.39457 1.17606 5.73375 1.16838 6.08395C1.16069 6.43414 1.26191 6.77809 1.45805 7.0683C1.65419 7.35852 1.93558 7.58069 2.26338 7.70415L5.32005 8.87082C5.38965 8.89743 5.45302 8.9381 5.50622 8.99029C5.55941 9.04248 5.60128 9.10507 5.62922 9.17415L6.79588 12.2367C6.91464 12.5598 7.13014 12.8385 7.41303 13.0347C7.69592 13.231 8.03243 13.3353 8.37672 13.3333H8.41755C8.76814 13.3269 9.10795 13.211 9.38935 13.0018C9.67075 12.7926 9.87963 12.5006 9.98672 12.1667L12.7459 3.90082C12.8462 3.6027 12.8612 3.28245 12.789 2.97629C12.7168 2.67012 12.5605 2.39025 12.3375 2.16832V2.16832ZM11.6667 3.53332L8.87838 11.805C8.84601 11.9097 8.78098 12.0013 8.69281 12.0663C8.60464 12.1314 8.49796 12.1666 8.38838 12.1667C8.27945 12.1684 8.17255 12.137 8.0819 12.0766C7.99124 12.0162 7.92113 11.9296 7.88088 11.8283L6.71422 8.76582C6.62963 8.54329 6.49919 8.34104 6.33136 8.17221C6.16353 8.00337 5.96207 7.87173 5.74005 7.78582L2.67755 6.61915C2.57424 6.58129 2.48543 6.51194 2.42367 6.42087C2.36192 6.32981 2.33033 6.22164 2.33338 6.11165C2.33347 6.00207 2.36863 5.89539 2.4337 5.80722C2.49878 5.71906 2.59036 5.65403 2.69505 5.62165L10.9667 2.86249C11.0617 2.82378 11.1658 2.81341 11.2666 2.83263C11.3673 2.85186 11.4603 2.89985 11.5344 2.9708C11.6084 3.04176 11.6603 3.13264 11.6838 3.23247C11.7073 3.3323 11.7013 3.43679 11.6667 3.53332V3.53332Z" fill="#666D97"/>
</g>
</svg>
