<svg width="35" height="24" viewBox="0 0 35 24" fill="none" xmlns="http://www.w3.org/2000/svg">
<g id="logos:youtube-icon" clip-path="url(#clip0_306_4359)">
<path id="Vector" d="M34.2467 3.74333C34.0509 3.01981 33.669 2.36019 33.139 1.83017C32.609 1.30015 31.9494 0.918215 31.2259 0.7224C28.5771 0 17.9165 0 17.9165 0C17.9165 0 7.25548 0.0218666 4.60668 0.744267C3.88315 0.940093 3.22354 1.32205 2.69354 1.85209C2.16354 2.38214 1.78164 3.04178 1.58588 3.76533C0.78468 8.47173 0.47388 15.6432 1.60788 20.1613C1.80366 20.8849 2.18557 21.5445 2.71557 22.0745C3.24556 22.6045 3.90516 22.9865 4.62868 23.1823C7.27748 23.9047 17.9383 23.9047 17.9383 23.9047C17.9383 23.9047 28.5989 23.9047 31.2476 23.1823C31.9712 22.9865 32.6308 22.6045 33.1608 22.0745C33.6908 21.5445 34.0728 20.8849 34.2685 20.1613C35.1136 15.4483 35.374 8.2812 34.2467 3.74333Z" fill="#FF0000"/>
<path id="Vector_2" d="M14.5234 17.0749L23.3672 11.9525L14.5234 6.83008V17.0749Z" fill="white"/>
</g>
<defs>
<clipPath id="clip0_306_4359">
<rect width="34.1333" height="24" fill="white" transform="translate(0.867188)"/>
</clipPath>
</defs>
</svg>
